<svg xmlns="http://www.w3.org/2000/svg"
     width="120" height="688" viewBox="0 0 120 688"
     fill="none" color="#000000">
  <!-- Roof -->
  <path d="M 30 40 L 60 10 L 90 40"
        stroke="currentColor" stroke-width="4" stroke-linecap="square" stroke-linejoin="miter"/>

  <!-- Walls -->
  <line x1="30" y1="40" x2="30" y2="670"
        stroke="currentColor" stroke-width="4" stroke-linecap="square"/>
  <line x1="90" y1="40" x2="90" y2="670"
        stroke="currentColor" stroke-width="4" stroke-linecap="square"/>

  <!-- Floor / base -->
  <line x1="30" y1="670" x2="90" y2="670"
        stroke="currentColor" stroke-width="4" stroke-linecap="square"/>

  <!-- Windows -->
  <rect x="53" y="54" width="14" height="14" fill="none" stroke="currentColor" stroke-width="4" />
  <rect x="53" y="96" width="14" height="14" fill="none" stroke="currentColor" stroke-width="4" />
  <rect x="53" y="138" width="14" height="14" fill="none" stroke="currentColor" stroke-width="4" />
  <rect x="53" y="180" width="14" height="14" fill="none" stroke="currentColor" stroke-width="4" />
  <rect x="53" y="222" width="14" height="14" fill="none" stroke="currentColor" stroke-width="4" />
  <rect x="53" y="264" width="14" height="14" fill="none" stroke="currentColor" stroke-width="4" />
  <rect x="53" y="306" width="14" height="14" fill="none" stroke="currentColor" stroke-width="4" />
  <rect x="53" y="348" width="14" height="14" fill="none" stroke="currentColor" stroke-width="4" />
  <rect x="53" y="390" width="14" height="14" fill="none" stroke="currentColor" stroke-width="4" />
  <rect x="53" y="432" width="14" height="14" fill="none" stroke="currentColor" stroke-width="4" />
  <rect x="53" y="474" width="14" height="14" fill="none" stroke="currentColor" stroke-width="4" />
  <rect x="53" y="516" width="14" height="14" fill="none" stroke="currentColor" stroke-width="4" />
  <rect x="53" y="558" width="14" height="14" fill="none" stroke="currentColor" stroke-width="4" />
  <rect x="53" y="600" width="14" height="14" fill="none" stroke="currentColor" stroke-width="4" />
  <rect x="53" y="642" width="14" height="14" fill="none" stroke="currentColor" stroke-width="4" />
</svg>
